<svg viewBox="0 0 323 166" fill="none" xmlns="http://www.w3.org/2000/svg">
<path d="M74.0051 48.8599L246.873 42.4611L249.817 122L76.9493 128.399L74.0051 48.8599Z" fill="#FFC845"/>
<path d="M96.4834 131.335C81.1234 131.335 73.1554 125.671 72.3874 114.439H85.5394C85.9234 116.743 86.8834 118.471 88.6114 119.623C90.3394 120.775 92.9314 121.351 96.4834 121.351C104.259 121.351 108.003 117.223 108.003 109.063V103.303C104.451 108.007 99.5554 110.311 93.4114 110.311C87.0754 110.311 81.7954 108.007 77.5714 103.399C73.4434 98.7911 71.3314 92.6471 71.3314 85.0631C71.3314 77.2871 73.4434 71.1431 77.5714 66.5351C81.7954 61.8311 86.9794 59.5271 93.2194 59.5271C97.5394 59.5271 101.187 60.6791 104.259 62.8871C107.523 65.3831 109.827 69.7991 110.691 74.3111C111.267 74.0231 112.995 74.1191 113.571 74.3111C113.571 71.1431 108.675 65.6711 108.675 61.5431V60.5831H121.155V107.143C121.155 115.015 118.851 120.967 114.339 125.095C109.923 129.223 103.971 131.335 96.4834 131.335ZM96.6754 99.6551C100.419 99.6551 103.299 98.2151 105.315 95.4311C107.523 92.6471 108.483 89.0951 108.483 84.9671C108.483 80.7431 107.523 77.1911 105.315 74.4071C103.299 71.5271 100.419 70.0871 96.6754 70.0871C93.0274 70.0871 90.2434 71.5271 88.1314 74.4071C86.1154 77.1911 85.0594 80.7431 85.0594 84.9671C85.0594 89.0951 86.1154 92.6471 88.1314 95.4311C90.2434 98.2151 93.0274 99.6551 96.6754 99.6551Z" fill="white"/>
<path d="M141.684 111.943H128.628V42.8231H141.684V111.943Z" fill="white"/>
<path d="M162.55 54.6311H147.766V42.8231H162.55V54.6311ZM161.686 111.943H148.63V60.5831H161.686V111.943Z" fill="white"/>
<path d="M181.532 111.943H168.476V60.5831H180.956V62.1191C180.956 66.1511 175.868 71.1431 175.868 74.7911C176.444 74.5991 178.364 74.5991 178.748 74.7911C179.9 69.9911 182.876 65.1911 185.948 62.7911C188.924 60.5831 192.668 59.5271 196.988 59.5271C202.556 59.5271 206.78 61.2551 209.66 64.7111C212.54 68.1671 214.076 72.9671 214.076 79.0151V111.943H200.924V82.7591C200.924 74.6951 197.948 70.7591 191.996 70.7591C188.732 70.7591 186.236 72.0071 184.316 74.5991C182.492 77.0951 181.532 80.3591 181.532 84.3911V111.943Z" fill="white"/>
<path d="M240.897 112.519C230.721 112.519 225.441 106.951 225.441 95.7191V72.1031H218.241V60.5831H225.633V47.6231H238.689V67.3031C241.089 62.6951 244.065 60.5831 249.057 60.5831H251.361V72.1031H238.689V92.4551C238.689 95.3351 239.169 97.3511 240.129 98.6951C241.089 100.135 242.817 100.807 245.313 100.807C247.041 100.807 249.153 100.519 251.361 100.039V111.559C248.385 112.231 244.833 112.519 240.897 112.519Z" fill="white"/>
</svg>

